<?xml version="1.0" encoding="UTF-8" standalone="no"?>
<svg
   version="1.0"
   width="1280.000000pt"
   height="842.000000pt"
   viewBox="0 0 1280.000000 842.000000"
   preserveAspectRatio="xMidYMid meet"
   id="svg10"
   sodipodi:docname="quote-bg.svg"
   inkscape:version="1.2.2 (b0a8486541, 2022-12-01)"
   xmlns:inkscape="http://www.inkscape.org/namespaces/inkscape"
   xmlns:sodipodi="http://sodipodi.sourceforge.net/DTD/sodipodi-0.dtd"
   xmlns="http://www.w3.org/2000/svg"
   xmlns:svg="http://www.w3.org/2000/svg">
  <defs
     id="defs14" />
  <sodipodi:namedview
     id="namedview12"
     pagecolor="#ffffff"
     bordercolor="#000000"
     borderopacity="0.25"
     inkscape:showpageshadow="2"
     inkscape:pageopacity="0.0"
     inkscape:pagecheckerboard="0"
     inkscape:deskcolor="#d1d1d1"
     inkscape:document-units="pt"
     showgrid="false"
     inkscape:zoom="0.4631829"
     inkscape:cx="853.87436"
     inkscape:cy="562.41282"
     inkscape:window-width="1366"
     inkscape:window-height="699"
     inkscape:window-x="0"
     inkscape:window-y="32"
     inkscape:window-maximized="1"
     inkscape:current-layer="svg10" />
  <metadata
     id="metadata2">
Created by potrace 1.15, written by Peter Selinger 2001-2017
</metadata>
  <g
     transform="translate(0.000000,842.000000) scale(0.100000,-0.100000)"
     fill="#000000"
     stroke="none"
     id="g8"
     style="fill:#000000;fill-opacity:0.21618003">
    <path
       d="M1970 8414 c-19 -2 -78 -9 -130 -15 -399 -45 -802 -220 -1120 -487 -492 -412 -744 -949 -717 -1527 21 -440 169 -784 471 -1094 303 -310 628 -466 1049 -503 276 -24 526 14 897 136 396 131 519 144 663 73 57 -28 92 -56 153 -119 109 -114 163 -229 201 -432 25 -127 24 -567 -1 -746 -73 -530 -234 -959 -510 -1353 -320 -459 -971 -979 -1911 -1527 -116 -67 -216 -127 -222 -132 -10 -8 -13 -90 -13 -349 0 -187 2 -339 5 -339 17 0 501 166 620 213 1187 464 2085 1176 2740 2172 475 723 728 1442 817 2320 19 196 16 704 -6 885 -83 685 -285 1194 -670 1690 -104 135 -409 441 -551 555 -377 300 -754 476 -1185 551 -114 20 -187 26 -345 29 -110 2 -216 1 -235 -1z"
       id="path4"
       style="fill:#000000;fill-opacity:0.21618003" />
    <path
       d="M9685 8410 c-320 -33 -652 -142 -902 -298 -246 -153 -490 -389 -656 -635 -73 -108 -171 -318 -211 -448 -61 -203 -71 -276 -70 -539 0 -206 3 -248 22 -340 76 -351 236 -636 504 -896 105 -102 161 -147 269 -217 298 -194 664 -284 1000 -247 142 15 307 55 519 124 411 135 580 156 720 89 146 -68 259 -218 309 -408 62 -235 77 -618 36 -930 -72 -552 -311 -1074 -706 -1545 -120 -143 -386 -405 -539 -529 -348 -285 -774 -565 -1232 -811 l-177 -95 -1 -344 c0 -323 1 -343 18 -336 9 3 73 26 142 50 1250 432 2229 1083 2916 1940 597 746 974 1575 1099 2419 41 279 50 399 50 706 0 275 -7 381 -36 575 -105 706 -401 1312 -889 1819 -493 512 -989 785 -1600 882 -115 18 -461 26 -585 14z"
       id="path6"
       style="fill:#000000;fill-opacity:0.21618003" />
  </g>
</svg>
